<?xml version="1.0" encoding="UTF-8" standalone="no"?>
<svg
   xmlns:osb="http://www.openswatchbook.org/uri/2009/osb"
   xmlns:dc="http://purl.org/dc/elements/1.1/"
   xmlns:cc="http://creativecommons.org/ns#"
   xmlns:rdf="http://www.w3.org/1999/02/22-rdf-syntax-ns#"
   xmlns:svg="http://www.w3.org/2000/svg"
   xmlns="http://www.w3.org/2000/svg"
   xmlns:sodipodi="http://sodipodi.sourceforge.net/DTD/sodipodi-0.dtd"
   xmlns:inkscape="http://www.inkscape.org/namespaces/inkscape"
   width="297mm"
   height="210mm"
   viewBox="0 0 297 210"
   version="1.1"
   id="svg10931"
   inkscape:version="1.0.2 (e86c8708, 2021-01-15)"
   sodipodi:docname="AIdiagram2.svg">
  <defs
     id="defs10925">
    <marker
       style="overflow:visible;"
       id="marker27024"
       refX="0.0"
       refY="0.0"
       orient="auto"
       inkscape:stockid="Arrow2Lend"
       inkscape:isstock="true">
      <path
         transform="scale(1.1) rotate(180) translate(1,0)"
         d="M 8.7185878,4.0337352 L -2.2072895,0.016013256 L 8.7185884,-4.0017078 C 6.9730900,-1.6296469 6.9831476,1.6157441 8.7185878,4.0337352 z "
         style="fill-rule:evenodd;stroke-width:0.625;stroke-linejoin:round;stroke:#000000;stroke-opacity:1;fill:#000000;fill-opacity:1"
         id="path27022" />
    </marker>
    <marker
       style="overflow:visible;"
       id="marker26924"
       refX="0.0"
       refY="0.0"
       orient="auto"
       inkscape:stockid="Arrow2Lend"
       inkscape:isstock="true"
       inkscape:collect="always">
      <path
         transform="scale(1.1) rotate(180) translate(1,0)"
         d="M 8.7185878,4.0337352 L -2.2072895,0.016013256 L 8.7185884,-4.0017078 C 6.9730900,-1.6296469 6.9831476,1.6157441 8.7185878,4.0337352 z "
         style="fill-rule:evenodd;stroke-width:0.625;stroke-linejoin:round;stroke:#000000;stroke-opacity:1;fill:#000000;fill-opacity:1"
         id="path26922" />
    </marker>
    <marker
       style="overflow:visible;"
       id="marker26830"
       refX="0.0"
       refY="0.0"
       orient="auto"
       inkscape:stockid="Arrow2Lend"
       inkscape:isstock="true"
       inkscape:collect="always">
      <path
         transform="scale(1.1) rotate(180) translate(1,0)"
         d="M 8.7185878,4.0337352 L -2.2072895,0.016013256 L 8.7185884,-4.0017078 C 6.9730900,-1.6296469 6.9831476,1.6157441 8.7185878,4.0337352 z "
         style="fill-rule:evenodd;stroke-width:0.625;stroke-linejoin:round;stroke:#000000;stroke-opacity:1;fill:#000000;fill-opacity:1"
         id="path26828" />
    </marker>
    <marker
       style="overflow:visible;"
       id="marker26742"
       refX="0.0"
       refY="0.0"
       orient="auto"
       inkscape:stockid="Arrow2Lend"
       inkscape:isstock="true"
       inkscape:collect="always">
      <path
         transform="scale(1.1) rotate(180) translate(1,0)"
         d="M 8.7185878,4.0337352 L -2.2072895,0.016013256 L 8.7185884,-4.0017078 C 6.9730900,-1.6296469 6.9831476,1.6157441 8.7185878,4.0337352 z "
         style="fill-rule:evenodd;stroke-width:0.625;stroke-linejoin:round;stroke:#000000;stroke-opacity:1;fill:#000000;fill-opacity:1"
         id="path26740" />
    </marker>
    <marker
       style="overflow:visible;"
       id="marker26660"
       refX="0.0"
       refY="0.0"
       orient="auto"
       inkscape:stockid="Arrow2Lend"
       inkscape:isstock="true"
       inkscape:collect="always">
      <path
         transform="scale(1.1) rotate(180) translate(1,0)"
         d="M 8.7185878,4.0337352 L -2.2072895,0.016013256 L 8.7185884,-4.0017078 C 6.9730900,-1.6296469 6.9831476,1.6157441 8.7185878,4.0337352 z "
         style="fill-rule:evenodd;stroke-width:0.625;stroke-linejoin:round;stroke:#000000;stroke-opacity:1;fill:#000000;fill-opacity:1"
         id="path26658" />
    </marker>
    <marker
       style="overflow:visible;"
       id="marker26584"
       refX="0.0"
       refY="0.0"
       orient="auto"
       inkscape:stockid="Arrow2Lend"
       inkscape:isstock="true"
       inkscape:collect="always">
      <path
         transform="scale(1.1) rotate(180) translate(1,0)"
         d="M 8.7185878,4.0337352 L -2.2072895,0.016013256 L 8.7185884,-4.0017078 C 6.9730900,-1.6296469 6.9831476,1.6157441 8.7185878,4.0337352 z "
         style="fill-rule:evenodd;stroke-width:0.625;stroke-linejoin:round;stroke:#17bfbf;stroke-opacity:1;fill:#17bfbf;fill-opacity:1"
         id="path26582" />
    </marker>
    <marker
       style="overflow:visible;"
       id="marker26137"
       refX="0.0"
       refY="0.0"
       orient="auto"
       inkscape:stockid="Arrow2Lend"
       inkscape:isstock="true">
      <path
         transform="scale(1.1) rotate(180) translate(1,0)"
         d="M 8.7185878,4.0337352 L -2.2072895,0.016013256 L 8.7185884,-4.0017078 C 6.9730900,-1.6296469 6.9831476,1.6157441 8.7185878,4.0337352 z "
         style="fill-rule:evenodd;stroke-width:0.625;stroke-linejoin:round;stroke:#00d2e8;stroke-opacity:1;fill:#00d2e8;fill-opacity:1"
         id="path26135" />
    </marker>
    <marker
       style="overflow:visible;"
       id="marker26067"
       refX="0.0"
       refY="0.0"
       orient="auto"
       inkscape:stockid="Arrow2Lend"
       inkscape:isstock="true">
      <path
         transform="scale(1.1) rotate(180) translate(1,0)"
         d="M 8.7185878,4.0337352 L -2.2072895,0.016013256 L 8.7185884,-4.0017078 C 6.9730900,-1.6296469 6.9831476,1.6157441 8.7185878,4.0337352 z "
         style="fill-rule:evenodd;stroke-width:0.625;stroke-linejoin:round;stroke:#00b7dc;stroke-opacity:1;fill:#00b7dc;fill-opacity:1"
         id="path26065" />
    </marker>
    <marker
       style="overflow:visible;"
       id="marker26009"
       refX="0.0"
       refY="0.0"
       orient="auto"
       inkscape:stockid="Arrow2Lend"
       inkscape:isstock="true"
       inkscape:collect="always">
      <path
         transform="scale(1.1) rotate(180) translate(1,0)"
         d="M 8.7185878,4.0337352 L -2.2072895,0.016013256 L 8.7185884,-4.0017078 C 6.9730900,-1.6296469 6.9831476,1.6157441 8.7185878,4.0337352 z "
         style="fill-rule:evenodd;stroke-width:0.625;stroke-linejoin:round;stroke:#000000;stroke-opacity:1;fill:#000000;fill-opacity:1"
         id="path26007" />
    </marker>
    <marker
       style="overflow:visible;"
       id="Arrow2Lend"
       refX="0.0"
       refY="0.0"
       orient="auto"
       inkscape:stockid="Arrow2Lend"
       inkscape:isstock="true">
      <path
         transform="scale(1.1) rotate(180) translate(1,0)"
         d="M 8.7185878,4.0337352 L -2.2072895,0.016013256 L 8.7185884,-4.0017078 C 6.9730900,-1.6296469 6.9831476,1.6157441 8.7185878,4.0337352 z "
         style="fill-rule:evenodd;stroke-width:0.625;stroke-linejoin:round;stroke:#00c3d8;stroke-opacity:1;fill:#00c3d8;fill-opacity:1"
         id="path25197" />
    </marker>
    <marker
       style="overflow:visible;"
       id="marker25667"
       refX="0.0"
       refY="0.0"
       orient="auto"
       inkscape:stockid="Arrow1Mend"
       inkscape:isstock="true">
      <path
         transform="scale(0.4) rotate(180) translate(10,0)"
         style="fill-rule:evenodd;stroke:#000000;stroke-width:1pt;stroke-opacity:1;fill:#000000;fill-opacity:1"
         d="M 0.0,0.0 L 5.0,-5.0 L -12.5,0.0 L 5.0,5.0 L 0.0,0.0 z "
         id="path25665" />
    </marker>
    <rect
       x="63.5"
       y="66.145833"
       width="10.583333"
       height="23.8125"
       id="rect25538" />
    <marker
       style="overflow:visible;"
       id="Arrow2Mend"
       refX="0.0"
       refY="0.0"
       orient="auto"
       inkscape:stockid="Arrow2Mend"
       inkscape:isstock="true">
      <path
         transform="scale(0.6) rotate(180) translate(0,0)"
         d="M 8.7185878,4.0337352 L -2.2072895,0.016013256 L 8.7185884,-4.0017078 C 6.9730900,-1.6296469 6.9831476,1.6157441 8.7185878,4.0337352 z "
         style="fill-rule:evenodd;stroke-width:0.625;stroke-linejoin:round;stroke:#000000;stroke-opacity:1;fill:#000000;fill-opacity:1"
         id="path25203" />
    </marker>
    <marker
       style="overflow:visible;"
       id="Arrow1Mend"
       refX="0.0"
       refY="0.0"
       orient="auto"
       inkscape:stockid="Arrow1Mend"
       inkscape:isstock="true">
      <path
         transform="scale(0.4) rotate(180) translate(10,0)"
         style="fill-rule:evenodd;stroke:#000000;stroke-width:1pt;stroke-opacity:1;fill:#000000;fill-opacity:1"
         d="M 0.0,0.0 L 5.0,-5.0 L -12.5,0.0 L 5.0,5.0 L 0.0,0.0 z "
         id="path25185" />
    </marker>
    <marker
       style="overflow:visible"
       id="EmptyTriangleOutM"
       refX="0.0"
       refY="0.0"
       orient="auto"
       inkscape:stockid="EmptyTriangleOutM"
       inkscape:isstock="true">
      <path
         transform="scale(0.4) translate(-4.5,0)"
         style="fill-rule:evenodd;fill:#ffffff;stroke:#000000;stroke-width:1pt;stroke-opacity:1"
         d="M 5.77,0.0 L -2.88,5.0 L -2.88,-5.0 L 5.77,0.0 z "
         id="path25339" />
    </marker>
    <linearGradient
       id="linearGradient22619"
       osb:paint="solid">
      <stop
         style="stop-color:#80e6ed;stop-opacity:1;"
         offset="0"
         id="stop22617" />
    </linearGradient>
    <symbol
       id="american_and">
      <title
         id="title13867">american_and</title>
      <g
         stroke-miterlimit="10"
         id="g13873">
        <path
           d="M 0.00820208,25.244425 H 11.918685 M 0.00820208,54.107556 H 11.918685 M 79.382144,39.676652 H 67.47166"
           id="path13869"
           style="stroke-width:0.264583" />
        <path
           d="m 11.918685,10.813785 v 57.72785 c 27.776488,0 55.552975,-14.431698 55.552975,-28.863395 0,-14.431698 -27.776223,-28.863396 -55.552975,-28.863396"
           id="path13871"
           style="stroke-width:0.264583" />
      </g>
    </symbol>
    <symbol
       id="core_transformer">
      <title
         id="title14181">core_transformer</title>
      <g
         stroke-miterlimit="10"
         id="g14189">
        <path
           d="m 23.708519,23.417477 c 4.356364,0 7.884583,2.167996 7.884583,4.837642 0,2.669646 -3.528483,4.837641 -7.884583,4.837641 -2.173023,0 -3.942557,-0.884766 -3.942557,-1.971145 0,-1.091671 1.769534,-1.971146 3.942292,-1.971146 4.356629,0 7.884848,2.162439 7.884848,4.832085 0,2.674938 -3.528483,4.837642 -7.884583,4.837642 -2.173023,0 -3.942557,-0.879475 -3.942557,-1.971146 0,-1.086379 1.769534,-1.971146 3.942292,-1.971146 4.356629,0 7.884848,2.167731 7.884848,4.837642 0,2.669646 -3.528483,4.837377 -7.884583,4.837377 -2.173023,0 -3.942556,-0.884502 -3.942556,-1.971146 0,-1.091671 1.769533,-1.971146 3.942291,-1.971146 4.356629,0 7.884848,2.162704 7.884848,4.837642 0,2.669646 -3.528483,4.83235 -7.884583,4.83235 -2.173023,0 -3.942556,-0.87974 -3.942556,-1.971146 0,-1.086644 1.769533,-1.971146 3.942291,-1.971146 4.356629,0 7.884848,2.167732 7.884848,4.837377 0,2.669646 -3.528483,4.837642 -7.884583,4.837642 m 31.961402,-0.0074 c -4.3561,0 -7.884583,-2.167732 -7.884583,-4.837377 0,-2.669646 3.528483,-4.837642 7.884583,-4.837642 2.173023,0 3.937264,0.884767 3.937264,1.971146 0,1.091671 -1.764241,1.971146 -3.937,1.971146 -4.356364,0 -7.884847,-2.16244 -7.884847,-4.83235 0,-2.674938 3.528483,-4.837377 7.884583,-4.837377 2.173023,0 3.937264,0.879475 3.937264,1.971145 0,1.086379 -1.764241,1.971146 -3.937,1.971146 -4.356364,0 -7.884847,-2.167731 -7.884847,-4.837642 0,-2.669645 3.528483,-4.837641 7.884583,-4.837641 2.173023,0 3.937264,0.884766 3.937264,1.971146 0,1.091935 -1.764241,1.971145 -3.937,1.971145 -4.356364,0 -7.884847,-2.162439 -7.884847,-4.837377 0,-2.669645 3.528483,-4.83235 7.884583,-4.83235 2.173023,0 3.937264,0.879475 3.937264,1.971146 0,1.086644 -1.764241,1.971146 -3.937,1.971146 -4.356364,0 -7.884847,-2.167731 -7.884847,-4.837377 0,-2.669646 3.528483,-4.837642 7.884583,-4.837642"
           id="path14183"
           style="stroke-width:0.264583" />
        <path
           d="M 0.26590625,0.29024792 H 23.920185 V 23.944792 m 0,31.539127 V 79.138198 H 0.26590625 M 79.112798,0.29130625 H 55.458254 V 23.94585 m 0,31.539127 v 23.654544 h 23.654544"
           id="path14185"
           style="stroke-width:0.264583" />
        <path
           d="M 41.66235,59.422771 V 19.997208 M 37.719794,59.422771 V 19.997208"
           id="path14187"
           style="stroke-width:0.264583" />
      </g>
    </symbol>
    <symbol
       id="ic_arrow_forward_24px">
      <path
         d="M 3.175,1.0583333 2.8019375,1.4313958 4.2783125,2.9104167 H 1.0583333 V 3.4395833 H 4.2783125 L 2.8019375,4.9186042 3.175,5.2916667 5.2916667,3.175 Z"
         id="path25018"
         style="stroke-width:0.264583" />
    </symbol>
  </defs>
  <sodipodi:namedview
     id="base"
     pagecolor="#ffffff"
     bordercolor="#666666"
     borderopacity="1.0"
     inkscape:pageopacity="0.0"
     inkscape:pageshadow="2"
     inkscape:zoom="0.87223258"
     inkscape:cx="619.88081"
     inkscape:cy="389.84317"
     inkscape:document-units="mm"
     inkscape:current-layer="layer1"
     inkscape:document-rotation="0"
     showgrid="true"
     objecttolerance="10000"
     inkscape:window-width="1440"
     inkscape:window-height="851"
     inkscape:window-x="0"
     inkscape:window-y="23"
     inkscape:window-maximized="0">
    <inkscape:grid
       type="xygrid"
       id="grid20695"
       visible="true" />
  </sodipodi:namedview>
  <metadata
     id="metadata10928">
    <rdf:RDF>
      <cc:Work
         rdf:about="">
        <dc:format>image/svg+xml</dc:format>
        <dc:type
           rdf:resource="http://purl.org/dc/dcmitype/StillImage" />
        <dc:title></dc:title>
      </cc:Work>
    </rdf:RDF>
  </metadata>
  <g
     inkscape:label="Layer 1"
     inkscape:groupmode="layer"
     id="layer1">
    <rect
       style="opacity:1;fill:#80e6ed;fill-opacity:1;fill-rule:evenodd;stroke:#000000;stroke-width:0.5;stroke-linecap:round;stroke-linejoin:round;stroke-miterlimit:4;stroke-dasharray:none"
       id="rect20697"
       width="31.750004"
       height="21.166668"
       x="5.2916646"
       y="95.249992"
       ry="5.2916694" />
    <path
       style="opacity:1;fill:none;stroke:#00d2e8;stroke-width:0.265;stroke-linecap:butt;stroke-linejoin:miter;stroke-miterlimit:4;stroke-dasharray:none;stroke-opacity:1;marker-end:url(#marker26137)"
       d="M 37.041666,105.83333 H 52.916665"
       id="path25174" />
    <path
       sodipodi:type="star"
       style="opacity:1;fill:#6dd5ff;fill-opacity:1;fill-rule:evenodd;stroke:#ffac4e;stroke-width:0.52373;stroke-linecap:round;stroke-linejoin:round;stroke-miterlimit:4;stroke-dasharray:none;stroke-dashoffset:0;stroke-opacity:1"
       id="path25522"
       sodipodi:sides="4"
       sodipodi:cx="76.729164"
       sodipodi:cy="41.010414"
       sodipodi:r1="14.552083"
       sodipodi:r2="10.289877"
       sodipodi:arg1="0"
       sodipodi:arg2="0.78539816"
       inkscape:flatsided="true"
       inkscape:rounded="0.12"
       inkscape:randomized="0"
       d="m 91.281247,41.010414 c 0,2.469571 -12.082512,14.552083 -14.552083,14.552083 -2.46957,0 -14.552083,-12.082512 -14.552083,-14.552083 0,-2.46957 12.082513,-14.552083 14.552083,-14.552083 2.469571,0 14.552083,12.082513 14.552083,14.552083 z"
       transform="matrix(1.0909092,0,0,0.54545436,-14.912886,83.464024)" />
    <text
       xml:space="preserve"
       style="font-size:4.23333px;line-height:1.25;font-family:Courier;-inkscape-font-specification:Courier;stroke-width:0.264583"
       x="57.411491"
       y="107.16038"
       id="text25534"><tspan
         sodipodi:role="line"
         id="tspan25532"
         x="57.411491"
         y="107.16038"
         style="font-size:4.23333px;stroke-width:0.264583">Is label?</tspan></text>
    <text
       xml:space="preserve"
       id="text25536"
       style="font-size:10.58329999999999949px;line-height:1.25;font-family:Courier;-inkscape-font-specification:Courier;white-space:pre;shape-inside:url(#rect25538);" />
    <rect
       style="fill:#c83737;fill-opacity:1;fill-rule:evenodd;stroke:#000000;stroke-width:0.5;stroke-linecap:round;stroke-linejoin:round;stroke-miterlimit:4;stroke-dasharray:none"
       id="rect20697-7"
       width="42.333321"
       height="15.875003"
       x="105.83334"
       y="34.395832"
       ry="3.9687524" />
    <rect
       style="fill:#c8ab37;fill-opacity:1;fill-rule:evenodd;stroke:#000000;stroke-width:0.499999;stroke-linecap:round;stroke-linejoin:round;stroke-miterlimit:4;stroke-dasharray:none"
       id="rect20697-9"
       width="42.33334"
       height="15.874996"
       x="105.83333"
       y="97.895836"
       ry="3.968751" />
    <rect
       style="fill:#88aa00;fill-opacity:1;fill-rule:evenodd;stroke:#000000;stroke-width:0.499999;stroke-linecap:round;stroke-linejoin:round;stroke-miterlimit:4;stroke-dasharray:none"
       id="rect20697-7-7"
       width="42.333328"
       height="15.87501"
       x="105.83334"
       y="161.39583"
       ry="3.9687545" />
    <path
       style="fill:none;stroke:#00b7dc;stroke-width:0.252818px;stroke-linecap:butt;stroke-linejoin:miter;stroke-opacity:1;marker-end:url(#marker26067)"
       d="m 68.791666,97.895832 c 10e-7,-36.236412 7.937501,-55.562498 37.041664,-55.562499"
       id="path25597"
       sodipodi:nodetypes="cc" />
    <path
       style="fill:none;stroke:#00dddc;stroke-width:0.265;stroke-linecap:butt;stroke-linejoin:miter;stroke-miterlimit:4;stroke-dasharray:none;stroke-opacity:1;marker-end:url(#marker26009)"
       d="m 68.791666,113.77083 c 10e-7,47.625 13.229167,55.5625 37.041664,55.5625"
       id="path25599"
       sodipodi:nodetypes="cc" />
    <path
       style="fill:none;stroke:#00c3d8;stroke-width:0.265;stroke-linecap:butt;stroke-linejoin:miter;stroke-miterlimit:4;stroke-dasharray:none;stroke-opacity:1;marker-end:url(#Arrow2Lend)"
       d="M 84.666666,105.83333 H 105.83333"
       id="path25663" />
    <text
       xml:space="preserve"
       style="font-size:4.23332999999999959px;line-height:1.25;font-family:Courier;-inkscape-font-specification:Courier;stroke-width:0.264583;fill:#ffffff;"
       x="109.96936"
       y="43.154621"
       id="text25534-0"><tspan
         sodipodi:role="line"
         id="tspan25532-2"
         x="109.96936"
         y="43.154621"
         style="font-size:4.23332999999999959px;stroke:none;stroke-width:0.264583;stroke-opacity:1;fill:#ffffff;">Unsupervised</tspan></text>
    <text
       xml:space="preserve"
       style="font-size:4.23332999999999959px;line-height:1.25;font-family:Courier;-inkscape-font-specification:Courier;stroke-width:0.264583;fill:#ffffff;"
       x="107.86629"
       y="106.84309"
       id="text25534-0-4"><tspan
         sodipodi:role="line"
         id="tspan25532-2-5"
         x="107.86629"
         y="106.84309"
         style="font-size:4.23332999999999959px;stroke-width:0.264583;fill:#ffffff;">Semi-supervised</tspan></text>
    <text
       xml:space="preserve"
       style="font-size:4.23332999999999959px;line-height:1.25;font-family:Courier;-inkscape-font-specification:Courier;stroke-width:0.264583;fill:#ffffff;"
       x="114.21217"
       y="170.34309"
       id="text25534-0-49"><tspan
         sodipodi:role="line"
         id="tspan25532-2-9"
         x="114.21217"
         y="170.34309"
         style="font-size:4.23332999999999959px;stroke-width:0.264583;fill:#ffffff;">Supervised</tspan></text>
    <path
       sodipodi:type="star"
       style="fill:#c83737;fill-opacity:1;fill-rule:evenodd;stroke:#ffac4e;stroke-width:0.52373;stroke-linecap:round;stroke-linejoin:round;stroke-miterlimit:4;stroke-dasharray:none;stroke-dashoffset:0;stroke-opacity:1"
       id="path25522-3"
       sodipodi:sides="4"
       sodipodi:cx="76.729164"
       sodipodi:cy="41.010414"
       sodipodi:r1="14.552083"
       sodipodi:r2="10.289877"
       sodipodi:arg1="0"
       sodipodi:arg2="0.78539816"
       inkscape:flatsided="true"
       inkscape:rounded="0.12"
       inkscape:randomized="0"
       transform="matrix(1.3636365,0,0,0.90909074,89.838059,5.0511456)"
       d="m 91.281247,41.010414 c 0,2.469571 -12.082512,14.552083 -14.552083,14.552083 -2.46957,0 -14.552083,-12.082512 -14.552083,-14.552083 0,-2.46957 12.082513,-14.552083 14.552083,-14.552083 2.469571,0 14.552083,12.082513 14.552083,14.552083 z" />
    <text
       xml:space="preserve"
       style="font-size:4.23332999999999959px;line-height:1.25;font-family:Courier;-inkscape-font-specification:Courier;stroke-width:0.264583;fill:#ffffff;"
       x="180.50476"
       y="41.083797"
       id="text25534-6"><tspan
         sodipodi:role="line"
         id="tspan25532-5"
         x="180.50476"
         y="41.083797"
         style="font-size:4.23332999999999959px;stroke-width:0.264583;fill:#ffffff;">Discrete or</tspan><tspan
         sodipodi:role="line"
         x="180.50476"
         y="46.375458"
         style="font-size:4.23332999999999959px;stroke-width:0.264583;fill:#ffffff;"
         id="tspan26341">continuous</tspan></text>
    <path
       sodipodi:type="star"
       style="fill:#c8ab37;fill-opacity:1;fill-rule:evenodd;stroke:#ffac4e;stroke-width:0.52373;stroke-linecap:round;stroke-linejoin:round;stroke-miterlimit:4;stroke-dasharray:none;stroke-dashoffset:0;stroke-opacity:1"
       id="path25522-3-8"
       sodipodi:sides="4"
       sodipodi:cx="76.729164"
       sodipodi:cy="41.010414"
       sodipodi:r1="14.552083"
       sodipodi:r2="10.289877"
       sodipodi:arg1="0"
       sodipodi:arg2="0.78539816"
       inkscape:flatsided="true"
       inkscape:rounded="0.12"
       inkscape:randomized="0"
       transform="matrix(1.3636365,0,0,0.90909074,89.83806,68.551146)"
       d="m 91.281247,41.010414 c 0,2.469571 -12.082512,14.552083 -14.552083,14.552083 -2.46957,0 -14.552083,-12.082512 -14.552083,-14.552083 0,-2.46957 12.082513,-14.552083 14.552083,-14.552083 2.469571,0 14.552083,12.082513 14.552083,14.552083 z" />
    <text
       xml:space="preserve"
       style="font-size:4.23332999999999959px;line-height:1.25;font-family:Courier;-inkscape-font-specification:Courier;stroke-width:0.264583;fill:#ffffff;"
       x="180.50476"
       y="104.58379"
       id="text25534-6-0"><tspan
         sodipodi:role="line"
         id="tspan25532-5-9"
         x="180.50476"
         y="104.58379"
         style="font-size:4.23332999999999959px;stroke-width:0.264583;fill:#ffffff;">Discrete or</tspan><tspan
         sodipodi:role="line"
         x="180.50476"
         y="109.87546"
         style="font-size:4.23332999999999959px;stroke-width:0.264583;fill:#ffffff;"
         id="tspan26341-5">continuous</tspan></text>
    <path
       sodipodi:type="star"
       style="fill:#88aa00;fill-opacity:1;fill-rule:evenodd;stroke:#ffac4e;stroke-width:0.52373;stroke-linecap:round;stroke-linejoin:round;stroke-miterlimit:4;stroke-dasharray:none;stroke-dashoffset:0;stroke-opacity:1"
       id="path25522-3-5"
       sodipodi:sides="4"
       sodipodi:cx="76.729164"
       sodipodi:cy="41.010414"
       sodipodi:r1="14.552083"
       sodipodi:r2="10.289877"
       sodipodi:arg1="0"
       sodipodi:arg2="0.78539816"
       inkscape:flatsided="true"
       inkscape:rounded="0.12"
       inkscape:randomized="0"
       transform="matrix(1.3636365,0,0,0.90909074,89.83806,132.05115)"
       d="m 91.281247,41.010414 c 0,2.469571 -12.082512,14.552083 -14.552083,14.552083 -2.46957,0 -14.552083,-12.082512 -14.552083,-14.552083 0,-2.46957 12.082513,-14.552083 14.552083,-14.552083 2.469571,0 14.552083,12.082513 14.552083,14.552083 z" />
    <text
       xml:space="preserve"
       style="font-size:4.23332999999999959px;line-height:1.25;font-family:Courier;-inkscape-font-specification:Courier;stroke-width:0.264583;fill:#ffffff;"
       x="180.50476"
       y="168.0838"
       id="text25534-6-1"><tspan
         sodipodi:role="line"
         id="tspan25532-5-0"
         x="180.50476"
         y="168.0838"
         style="font-size:4.23332999999999959px;stroke-width:0.264583;fill:#ffffff;">Discrete or</tspan><tspan
         sodipodi:role="line"
         x="180.50476"
         y="173.37546"
         style="font-size:4.23332999999999959px;stroke-width:0.264583;fill:#ffffff;"
         id="tspan26341-9">continuous</tspan></text>
    <rect
       style="fill:#c83737;fill-opacity:1;fill-rule:evenodd;stroke:#f3b432;stroke-width:0.684653;stroke-linecap:round;stroke-linejoin:round;stroke-miterlimit:4;stroke-dasharray:none;stroke-opacity:1"
       id="rect20697-7-0"
       width="47.624966"
       height="26.458332"
       x="232.83336"
       y="13.229167"
       ry="6.6145859" />
    <text
       xml:space="preserve"
       style="font-size:4.23332999999999959px;line-height:1.25;font-family:Courier;-inkscape-font-specification:Courier;stroke-width:0.264583;fill:#ffffff;"
       x="240.50264"
       y="22.429613"
       id="text25534-0-1"><tspan
         sodipodi:role="line"
         id="tspan25532-2-6"
         x="240.50264"
         y="22.429613"
         style="font-size:4.23332999999999959px;stroke-width:0.264583;fill:#ffffff;">Unsupervised</tspan></text>
    <rect
       style="fill:#c83737;fill-opacity:1;fill-rule:evenodd;stroke:#000000;stroke-width:0.684653;stroke-linecap:round;stroke-linejoin:round;stroke-miterlimit:4;stroke-dasharray:none"
       id="rect20697-7-0-3"
       width="47.624966"
       height="26.458332"
       x="232.83336"
       y="44.979168"
       ry="6.6145859" />
    <rect
       style="fill:#c8ab37;fill-opacity:1;fill-rule:evenodd;stroke:#000000;stroke-width:0.684653;stroke-linecap:round;stroke-linejoin:round;stroke-miterlimit:4;stroke-dasharray:none"
       id="rect20697-7-0-6"
       width="47.624966"
       height="26.458332"
       x="232.83336"
       y="76.729172"
       ry="6.6145859" />
    <rect
       style="fill:#c8ab37;fill-opacity:1;fill-rule:evenodd;stroke:#000000;stroke-width:0.684653;stroke-linecap:round;stroke-linejoin:round;stroke-miterlimit:4;stroke-dasharray:none"
       id="rect20697-7-0-0"
       width="47.624966"
       height="26.458332"
       x="232.83336"
       y="108.47916"
       ry="6.6145859" />
    <rect
       style="fill:#88aa00;fill-opacity:1;fill-rule:evenodd;stroke:#000000;stroke-width:0.684653;stroke-linecap:round;stroke-linejoin:round;stroke-miterlimit:4;stroke-dasharray:none"
       id="rect20697-7-0-2"
       width="47.624966"
       height="26.458332"
       x="232.83333"
       y="140.22917"
       ry="6.6145859" />
    <rect
       style="fill:#88aa00;fill-opacity:1;fill-rule:evenodd;stroke:#000000;stroke-width:0.684653;stroke-linecap:round;stroke-linejoin:round;stroke-miterlimit:4;stroke-dasharray:none"
       id="rect20697-7-0-30"
       width="47.624966"
       height="26.458332"
       x="232.83333"
       y="171.97917"
       ry="6.6145859" />
    <path
       style="fill:none;stroke:#17bfbf;stroke-width:0.265;stroke-linecap:butt;stroke-linejoin:miter;stroke-opacity:1;stroke-miterlimit:4;stroke-dasharray:none;marker-end:url(#marker26584)"
       d="m 205.05208,34.395833 c 0,-7.9375 9.26042,-7.9375 27.78125,-7.9375"
       id="path26492"
       sodipodi:nodetypes="cc" />
    <path
       style="fill:none;stroke:#000000;stroke-width:0.26458300000000001px;stroke-linecap:butt;stroke-linejoin:miter;stroke-opacity:1;marker-end:url(#marker26660)"
       d="m 205.05208,50.270833 c 0,9.260416 9.26042,7.9375 27.78125,7.9375"
       id="path26494"
       sodipodi:nodetypes="cc" />
    <path
       style="fill:none;stroke:#000000;stroke-width:0.26458300000000001px;stroke-linecap:butt;stroke-linejoin:miter;stroke-opacity:1;marker-end:url(#marker26742)"
       d="m 205.05208,97.895833 c 0,-7.9375 9.26042,-7.9375 27.78125,-7.9375"
       id="path26492-1"
       sodipodi:nodetypes="cc" />
    <path
       style="fill:none;stroke:#000000;stroke-width:0.26458300000000001px;stroke-linecap:butt;stroke-linejoin:miter;stroke-opacity:1;marker-end:url(#marker26830)"
       d="m 205.05208,113.77083 c 0,9.26042 9.26042,7.9375 27.78125,7.9375"
       id="path26494-4"
       sodipodi:nodetypes="cc" />
    <path
       style="fill:none;stroke:#000000;stroke-width:0.26458300000000001px;stroke-linecap:butt;stroke-linejoin:miter;stroke-opacity:1;marker-end:url(#marker26924)"
       d="m 205.05208,161.39583 c 0,-7.9375 9.26042,-7.9375 27.78125,-7.9375"
       id="path26492-7"
       sodipodi:nodetypes="cc" />
    <path
       style="fill:none;stroke:#000000;stroke-width:0.26458300000000001px;stroke-linecap:butt;stroke-linejoin:miter;stroke-opacity:1;marker-end:url(#marker27024)"
       d="m 205.05208,177.27083 c 0,9.26042 9.26042,7.9375 27.78125,7.9375"
       id="path26494-4-1"
       sodipodi:nodetypes="cc" />
  </g>
</svg>
