<?xml version="1.0" encoding="UTF-8" standalone="no"?>
<svg
   xmlns:dc="http://purl.org/dc/elements/1.1/"
   xmlns:cc="http://creativecommons.org/ns#"
   xmlns:rdf="http://www.w3.org/1999/02/22-rdf-syntax-ns#"
   xmlns:svg="http://www.w3.org/2000/svg"
   xmlns="http://www.w3.org/2000/svg"
   xmlns:sodipodi="http://sodipodi.sourceforge.net/DTD/sodipodi-0.dtd"
   xmlns:inkscape="http://www.inkscape.org/namespaces/inkscape"
   width="567"
   height="322"
   overflow="hidden"
   version="1.1"
   id="svg1395"
   sodipodi:docname="reg_front.svg"
   inkscape:version="1.0.2 (e86c8708, 2021-01-15)">
  <metadata
     id="metadata1399">
    <rdf:RDF>
      <cc:Work
         rdf:about="">
        <dc:format>image/svg+xml</dc:format>
        <dc:type
           rdf:resource="http://purl.org/dc/dcmitype/StillImage" />
      </cc:Work>
    </rdf:RDF>
  </metadata>
  <sodipodi:namedview
     pagecolor="#ffffff"
     bordercolor="#666666"
     borderopacity="1"
     objecttolerance="10"
     gridtolerance="10"
     guidetolerance="10"
     inkscape:pageopacity="0"
     inkscape:pageshadow="2"
     inkscape:window-width="1440"
     inkscape:window-height="855"
     id="namedview1397"
     showgrid="false"
     inkscape:zoom="1.2010328"
     inkscape:cx="304.35937"
     inkscape:cy="163.99438"
     inkscape:window-x="0"
     inkscape:window-y="23"
     inkscape:window-maximized="0"
     inkscape:current-layer="g1393" />
  <defs
     id="defs1301">
    <clipPath
       id="clip0">
      <rect
         x="30"
         y="22"
         width="567"
         height="322"
         id="rect1298" />
    </clipPath>
  </defs>
  <g
     clip-path="url(#clip0)"
     transform="translate(-30,-22)"
     id="g1393">
    <path
       d="M 126.5,82.5001 V 310.876"
       stroke="#4472c4"
       stroke-width="0.666667"
       stroke-miterlimit="8"
       fill="none"
       fill-rule="evenodd"
       id="path1303" />
    <path
       d="M 126.5,23.5001 V 310.35"
       stroke="#000000"
       stroke-width="1.33333"
       stroke-miterlimit="8"
       fill="none"
       fill-rule="evenodd"
       id="path1305"
       style="fill:#ff7f2a;stroke:#ff7f2a;stroke-opacity:1" />
    <path
       d="M 126.5,309.5 H 482.294"
       stroke="#000000"
       stroke-width="1.33333"
       stroke-miterlimit="8"
       fill="none"
       fill-rule="evenodd"
       id="path1307"
       style="fill:#ff7f2a;stroke:#ff7f2a;stroke-opacity:1" />
    <path
       d="M 0,3.5 C 0,1.567 1.34315,0 3,0 4.65685,0 6,1.567 6,3.5 6,5.433 4.65685,7 3,7 1.34315,7 0,5.433 0,3.5 Z"
       stroke="#ae5a21"
       stroke-width="1.33333"
       stroke-miterlimit="8"
       fill="#ed7d31"
       fill-rule="evenodd"
       transform="matrix(1,0,0,-1,207.5,132.5)"
       id="path1309" />
    <path
       d="M 0,0 266.986,216.907"
       stroke="#4472c4"
       stroke-width="1.33333"
       stroke-miterlimit="8"
       stroke-dasharray="5.33333, 4"
       fill="none"
       fill-rule="evenodd"
       transform="matrix(1,0,0,-1,126.5,291.407)"
       id="path1311" />
    <path
       d="M 0,3.5 C 0,1.567 1.11929,0 2.5,0 3.88071,0 5,1.567 5,3.5 5,5.433 3.88071,7 2.5,7 1.11929,7 0,5.433 0,3.5 Z"
       stroke="#ae5a21"
       stroke-width="1.33333"
       stroke-miterlimit="8"
       fill="#ed7d31"
       fill-rule="evenodd"
       transform="matrix(1,0,0,-1,171.5,213.5)"
       id="path1313" />
    <path
       d="M 0,3.5 C 0,1.567 1.34315,0 3,0 4.65685,0 6,1.567 6,3.5 6,5.433 4.65685,7 3,7 1.34315,7 0,5.433 0,3.5 Z"
       stroke="#ae5a21"
       stroke-width="1.33333"
       stroke-miterlimit="8"
       fill="#ed7d31"
       fill-rule="evenodd"
       transform="matrix(1,0,0,-1,225.5,281.5)"
       id="path1315" />
    <path
       d="M 0,3 C 0,1.34315 1.34315,0 3,0 4.65685,0 6,1.34315 6,3 6,4.65685 4.65685,6 3,6 1.34315,6 0,4.65685 0,3 Z"
       stroke="#ae5a21"
       stroke-width="1.33333"
       stroke-miterlimit="8"
       fill="#ed7d31"
       fill-rule="evenodd"
       transform="matrix(1,0,0,-1,266.5,199.5)"
       id="path1317" />
    <path
       d="M 0,3.5 C 0,1.567 1.34315,0 3,0 4.65685,0 6,1.567 6,3.5 6,5.433 4.65685,7 3,7 1.34315,7 0,5.433 0,3.5 Z"
       stroke="#ae5a21"
       stroke-width="1.33333"
       stroke-miterlimit="8"
       fill="#ed7d31"
       fill-rule="evenodd"
       transform="matrix(1,0,0,-1,258.5,140.5)"
       id="path1319" />
    <path
       d="M 0,3.5 C 0,1.567 1.34315,0 3,0 4.65685,0 6,1.567 6,3.5 6,5.433 4.65685,7 3,7 1.34315,7 0,5.433 0,3.5 Z"
       stroke="#ae5a21"
       stroke-width="1.33333"
       stroke-miterlimit="8"
       fill="#ed7d31"
       fill-rule="evenodd"
       transform="matrix(1,0,0,-1,329.5,174.5)"
       id="path1321" />
    <path
       d="M 0,3.5 C 0,1.567 1.34315,0 3,0 4.65685,0 6,1.567 6,3.5 6,5.433 4.65685,7 3,7 1.34315,7 0,5.433 0,3.5 Z"
       stroke="#ae5a21"
       stroke-width="1.33333"
       stroke-miterlimit="8"
       fill="#ed7d31"
       fill-rule="evenodd"
       transform="matrix(1,0,0,-1,374.5,125.5)"
       id="path1323" />
    <path
       d="M 0,3 C 0,1.34315 1.34315,0 3,0 4.65685,0 6,1.34315 6,3 6,4.65685 4.65685,6 3,6 1.34315,6 0,4.65685 0,3 Z"
       stroke="#ae5a21"
       stroke-width="1.33333"
       stroke-miterlimit="8"
       fill="#ed7d31"
       fill-rule="evenodd"
       transform="matrix(1,0,0,-1,321.5,88.5001)"
       id="path1325" />
    <path
       d="m 228,207 v 68.105"
       stroke="#000000"
       stroke-width="2"
       stroke-miterlimit="8"
       stroke-dasharray="8, 6"
       fill="none"
       fill-rule="evenodd"
       id="path1327"
       style="fill:#b3b3b3;fill-opacity:1;stroke:#ac9393;stroke-opacity:1" />
    <path
       d="m 210,132 v 90.699"
       stroke="#000000"
       stroke-width="2"
       stroke-miterlimit="8"
       stroke-dasharray="8, 6"
       fill="none"
       fill-rule="evenodd"
       id="path1329"
       style="fill:#b3b3b3;fill-opacity:1;stroke:#ac9393;stroke-opacity:1" />
    <path
       d="m 173,215 v 37.788"
       stroke="#000000"
       stroke-width="2"
       stroke-miterlimit="8"
       stroke-dasharray="8, 6"
       fill="none"
       fill-rule="evenodd"
       id="path1331"
       style="fill:#b3b3b3;fill-opacity:1;stroke:#ac9393;stroke-opacity:1" />
    <path
       d="m 260,141 v 37.788"
       stroke="#000000"
       stroke-width="2"
       stroke-miterlimit="8"
       stroke-dasharray="8, 6"
       fill="none"
       fill-rule="evenodd"
       id="path1333"
       style="fill:#b3b3b3;fill-opacity:1;stroke:#ac9393;stroke-opacity:1" />
    <path
       d="m 332,125 v 37.788"
       stroke="#000000"
       stroke-width="2"
       stroke-miterlimit="8"
       stroke-dasharray="8, 6"
       fill="none"
       fill-rule="evenodd"
       id="path1335"
       style="fill:#b3b3b3;fill-opacity:1;stroke:#ac9393;stroke-opacity:1" />
    <path
       d="m 377,88 v 30.018"
       stroke="#000000"
       stroke-width="2"
       stroke-miterlimit="8"
       stroke-dasharray="8, 6"
       fill="none"
       fill-rule="evenodd"
       id="path1337"
       style="fill:#b3b3b3;fill-opacity:1;stroke:#ac9393;stroke-opacity:1" />
    <path
       d="m 324,88 v 39.711"
       stroke="#000000"
       stroke-width="2"
       stroke-miterlimit="8"
       stroke-dasharray="8, 6"
       fill="none"
       fill-rule="evenodd"
       id="path1339"
       style="fill:#b3b3b3;fill-opacity:1;stroke:#ac9393;stroke-opacity:1" />
    <path
       d="m 269,176 v 19.289"
       stroke="#000000"
       stroke-width="2"
       stroke-miterlimit="8"
       stroke-dasharray="8, 6"
       fill="none"
       fill-rule="evenodd"
       id="path1341" />
    <text
       font-family="Arial, Arial_MSFontService, sans-serif"
       font-weight="400"
       font-size="16px"
       transform="translate(234.244,330)"
       id="text1343"
       style="fill:#666666;fill-opacity:1;">Independent variable (X)</text>
    <text
       font-family="Arial, Arial_MSFontService, sans-serif"
       font-weight="400"
       font-size="16px"
       transform="rotate(-90,169.6315,50.3685)"
       id="text1345"
       style="fill:#666666;fill-opacity:1;">Dependent variable (y)</text>
    <path
       d="m 363.5,188.5 h 38.204"
       stroke="#4472c4"
       stroke-width="1.33333"
       stroke-miterlimit="8"
       stroke-dasharray="5.33333, 4"
       fill="none"
       fill-rule="evenodd"
       id="path1347" />
    <text
       font-family="Arial, Arial_MSFontService, sans-serif"
       font-weight="400"
       font-size="13px"
       transform="translate(408.539,193)"
       id="text1351"
       style="fill:#666666;fill-opacity:1;">Regression <tspan
   font-size="13px"
   x="70.833298"
   y="0"
   id="tspan1349"
   style="fill:#666666;fill-opacity:1;">line (predicted y)</tspan></text>
    <path
       d="M 0,3.5 C 0,1.567 1.34315,0 3,0 4.65685,0 6,1.567 6,3.5 6,5.433 4.65685,7 3,7 1.34315,7 0,5.433 0,3.5 Z"
       stroke="#ae5a21"
       stroke-width="1.33333"
       stroke-miterlimit="8"
       fill="#ed7d31"
       fill-rule="evenodd"
       transform="matrix(1,0,0,-1,393.5,213.5)"
       id="path1353" />
    <text
       font-family="Arial, Arial_MSFontService, sans-serif"
       font-weight="400"
       font-size="13px"
       transform="translate(407.019,213)"
       id="text1357"
       style="fill:#666666;fill-opacity:1;">Actual <tspan
   font-size="13px"
   x="40.5"
   y="0"
   id="tspan1355"
   style="fill:#666666;fill-opacity:1;">data (actual y)</tspan></text>
    <path
       d="m 366,236 h 38.204"
       stroke="#000000"
       stroke-width="2"
       stroke-miterlimit="8"
       stroke-dasharray="8, 6"
       fill="none"
       fill-rule="evenodd"
       id="path1359"
       style="stroke:#ac9393;stroke-opacity:1" />
    <text
       font-family="Arial, Arial_MSFontService, sans-serif"
       font-weight="400"
       font-size="13px"
       transform="translate(408.539,241)"
       id="text1375"
       style="fill:#666666;fill-opacity:1;stroke:none;stroke-opacity:1;">Residuals (error) <tspan
   font-size="13px"
   x="0"
   y="16"
   id="tspan1361"
   style="fill:#666666;fill-opacity:1;stroke:none;stroke-opacity:1;">(actual y</tspan><tspan
   font-size="13px"
   x="53.833302"
   y="16"
   id="tspan1363"
   style="fill:#666666;fill-opacity:1;stroke:none;stroke-opacity:1;">-</tspan><tspan
   font-size="13px"
   x="62"
   y="16"
   id="tspan1365"
   style="fill:#666666;fill-opacity:1;stroke:none;stroke-opacity:1;">predicted y)</tspan><tspan
   font-size="13px"
   x="-350.82199"
   y="56"
   id="tspan1367"
   style="fill:#666666;fill-opacity:1;stroke:none;stroke-opacity:1;">y</tspan>-intercept <tspan
   font-size="13px"
   x="-327.98801"
   y="72"
   id="tspan1369"
   style="fill:#666666;fill-opacity:1;stroke:none;stroke-opacity:1;">(a)</tspan><tspan
   font-size="13px"
   x="-13.5093"
   y="-171"
   id="tspan1371"
   style="fill:#666666;fill-opacity:1;stroke:none;stroke-opacity:1;">y =</tspan><tspan
   font-size="13px"
   x="8.3240099"
   y="-171"
   id="tspan1373"
   style="fill:#666666;fill-opacity:1;stroke:none;stroke-opacity:1;">a+bX+ε</tspan></text>
    <path
       d="M 237.23384,202.61692 312.656,202.639"
       stroke="#a5a5a5"
       stroke-width="2"
       stroke-miterlimit="8"
       fill="none"
       fill-rule="evenodd"
       id="path1377"
       sodipodi:nodetypes="cc" />
    <path
       d="M 313,141.69487 V 202.927"
       stroke="#a5a5a5"
       stroke-width="2"
       stroke-miterlimit="8"
       fill="none"
       fill-rule="evenodd"
       id="path1379"
       sodipodi:nodetypes="cc" />
    <text
       font-family="Arial, Arial_MSFontService, sans-serif"
       font-weight="400"
       font-size="11px"
       id="text1383"
       style="stroke:#ff7f2a;stroke-opacity:1"
       x="287.34305"
       y="196.8308"><tspan
         sodipodi:role="line"
         id="tspan2075"
         x="287.34305"
         y="196.8308" /><tspan
         sodipodi:role="line"
         id="tspan2077"
         x="287.34305"
         y="210.5808"><tspan
           font-size="11px"
           x="315.59766"
           y="179.8308"
           style="stroke:#ff7f2a;stroke-opacity:1"
           id="tspan2079"></tspan></tspan><tspan
         sodipodi:role="line"
         x="287.34305"
         y="224.3308"
         id="tspan2081"><tspan
           font-size="11px"
           x="315.59766"
           y="179.8308"
           style="stroke:#ff7f2a;stroke-opacity:1"
           id="tspan2083"></tspan></tspan><tspan
         sodipodi:role="line"
         x="315.59766"
         y="179.8308"
         id="tspan2085"><tspan
           font-size="11px"
           x="315.59766"
           y="179.8308"
           style="stroke:#ff7f2a;stroke-opacity:1"
           id="tspan2087">Δy</tspan></tspan></text>
    <path
       d="m 368,274 h 30.373"
       stroke="#a5a5a5"
       stroke-width="2"
       stroke-miterlimit="8"
       fill="none"
       fill-rule="evenodd"
       id="path1385" />
    <text
       font-family="Arial, Arial_MSFontService, sans-serif"
       font-weight="400"
       font-size="13px"
       transform="translate(406.645,278)"
       id="text1391"
       style="fill:#666666;fill-opacity:1;">Slope (b=<tspan
   font-size="13px"
   x="57.166698"
   y="0"
   id="tspan1387"
   style="fill:#666666;fill-opacity:1;">Δy</tspan><tspan
   font-size="13px"
   x="76.333298"
   y="0"
   id="tspan1389"
   style="fill:#666666;fill-opacity:1;">/ ΔX)</tspan></text>
    <text
       font-family="Arial, Arial_MSFontService, sans-serif"
       font-weight="400"
       font-size="11px"
       id="text1383-6"
       style="stroke:#ff7f2a;stroke-opacity:1"
       x="271.9826"
       y="214.9931"><tspan
         sodipodi:role="line"
         id="tspan2075-5"
         x="271.9826"
         y="214.9931">Δx</tspan><tspan
         sodipodi:role="line"
         x="271.9826"
         y="228.7431"
         id="tspan2085-4" /></text>
  </g>
</svg>
